M48
;DRILL file {KiCad 4.0.2-stable} date 5/19/2016 10:39:03 AM
;FORMAT={-:-/ absolute / metric / decimal}
FMAT,2
METRIC,TZ
T1C0.400
T2C0.762
T3C0.800
T4C1.000
T5C1.001
T6C1.016
T7C1.300
T8C1.501
%
G90
G05
M71
T1
X129.5Y-38.
X129.5Y-91.5
X145.5Y-57.
X145.5Y-68.
X147.5Y-50.
X174.5Y-128.
X182.Y-117.
X189.5Y-111.
X206.Y-124.5
T2
X157.14Y-42.49
X157.14Y-45.03
X157.14Y-47.57
X157.14Y-50.11
X157.14Y-52.65
X157.14Y-55.19
X157.14Y-57.73
X157.14Y-60.27
X157.14Y-62.81
X157.14Y-65.35
X157.14Y-67.89
X157.14Y-70.43
X202.86Y-42.49
X202.86Y-45.03
X202.86Y-47.57
X202.86Y-50.11
X202.86Y-52.65
X202.86Y-55.19
X202.86Y-57.73
X202.86Y-60.27
X202.86Y-62.81
X202.86Y-65.35
X202.86Y-67.89
X202.86Y-70.43
T3
X194.Y-126.5
X194.Y-128.5
X194.Y-130.5
T4
X150.3Y-89.3
X155.5Y-118.7
X160.5Y-118.7
X165.7Y-89.3
X174.34Y-130.5
X176.88Y-130.5
X179.42Y-130.5
X181.96Y-130.5
X184.5Y-130.5
T5
X149.Y-81.
X159.16Y-81.
X163.Y-81.
X173.16Y-81.
X177.Y-81.
X187.16Y-81.
T6
X192.5Y-88.928
X192.5Y-91.214
X192.5Y-93.5
T7
X114.Y-42.
X114.Y-47.
X114.Y-55.
X114.Y-60.
X114.Y-68.
X114.Y-73.
X114.Y-82.
X114.Y-87.
X114.Y-95.
X114.Y-100.
X114.Y-108.
X114.Y-113.
X114.Y-121.
X114.Y-126.
X155.Y-128.
X160.Y-128.
T8
X121.999Y-84.
X144.001Y-84.
T0
M30
