M48
;DRILL file {KiCad 4.0.2-stable} date 5/19/2016 10:37:13 AM
;FORMAT={-:-/ absolute / metric / decimal}
FMAT,2
METRIC,TZ
T1C0.400
T2C0.600
T3C0.701
T4C0.762
T5C0.800
T6C1.000
T7C1.001
T8C1.016
T9C1.300
%
G90
G05
M71
T1
X36.5Y-140.5
X36.5Y-144.5
X36.6Y-131.8
X39.4Y-117.8
X44.6Y-113.4
X44.6Y-125.8
X46.5Y-140.5
X52.5Y-139.
X54.9Y-122.7
X61.75Y-137.25
X62.4Y-144.2
X63.Y-135.75
X64.5Y-122.5
X71.4Y-137.8
X77.1Y-120.3
T2
X84.6Y-100.46
X84.6Y-101.73
X84.6Y-103.
T3
X89.203Y-93.601
X89.203Y-103.761
T4
X42.98Y-91.4
X42.98Y-104.6
X61.52Y-91.4
X61.52Y-104.6
T5
X29.25Y-128.25
X29.25Y-130.25
X29.25Y-132.25
X78.2Y-107.58
X78.2Y-115.2
X80.74Y-107.58
X80.74Y-115.2
T6
X95.45Y-92.55
X95.45Y-104.55
T7
X112.Y-109.24
X112.Y-119.4
X112.Y-123.24
X112.Y-133.4
X112.Y-136.84
X112.Y-147.
T8
X48.75Y-119.47
X48.75Y-122.01
X48.75Y-124.55
X48.75Y-127.09
X48.75Y-129.63
X48.75Y-132.17
X48.75Y-134.71
X48.75Y-137.25
T9
X34.75Y-94.
X34.75Y-99.
X68.75Y-95.5
X73.75Y-95.5
X93.5Y-98.5
X107.65Y-104.55
X107.7Y-92.5
X121.Y-93.5
X121.Y-98.5
X121.Y-103.5
X121.Y-112.
X121.Y-117.
X121.Y-125.
X121.Y-130.
X121.Y-138.
X121.Y-143.
T0
M30
